<svg version="1.1" id="Layer_1" xmlns="http://www.w3.org/2000/svg" xmlns:xlink="http://www.w3.org/1999/xlink" x="0px" y="0px"
	 width="100%" viewBox="0 0 2536 692" enable-background="new 0 0 2536 692" xml:space="preserve">
<path fill="#FFFFFF" opacity="1.000000" stroke="none" 
	d="
M1860.000000,693.000000 
	C1240.000122,693.000000 620.500244,693.000000 1.000249,693.000000 
	C1.000166,462.333496 1.000166,231.666977 1.000083,1.000228 
	C1.999848,1.000000 2.999696,1.000000 3.999543,1.000000 
	C848.332703,1.000000 1692.665894,1.000000 2536.999268,1.000000 
	C2536.999512,231.666321 2536.999512,462.332642 2536.999756,692.999512 
	C2311.500000,693.000000 2086.000000,693.000000 1860.000000,693.000000 
M1062.011719,356.518402 
	C1054.144287,347.314819 1046.247070,338.136444 1038.418213,328.900208 
	C1031.339966,320.549408 1024.313110,312.154694 1017.305054,303.744720 
	C1007.589600,292.085510 997.953369,280.360016 988.206665,268.727112 
	C980.643250,259.700134 972.909424,250.815933 965.347290,241.787888 
	C955.602112,230.153671 945.992676,218.405716 936.247314,206.771606 
	C930.363342,199.747238 924.000793,193.093124 918.536560,185.763275 
	C916.459412,182.976913 914.699829,181.937271 911.441589,181.948135 
	C884.109436,182.039291 856.776917,181.996414 829.444458,182.010086 
	C828.013245,182.010803 826.582153,182.158081 825.312622,182.228195 
	C825.312622,193.693054 825.312622,204.766586 825.312622,216.232452 
	C838.031982,216.232452 850.442078,216.232452 862.682129,216.232452 
	C862.682129,309.036743 862.682129,401.440002 862.682129,494.242920 
	C849.623901,494.242920 836.880310,494.242920 824.325806,494.242920 
	C824.325806,505.719849 824.325806,516.793945 824.325806,527.671204 
	C866.390442,527.671204 908.128540,527.671204 949.667175,527.671204 
	C949.667175,516.265991 949.667175,505.191589 949.667175,493.727173 
	C935.260254,493.727173 921.183838,493.727173 906.995422,493.727173 
	C907.019043,409.696625 906.968262,326.067078 907.724304,242.405655 
	C916.005676,251.010300 923.370178,259.684143 930.809265,268.293549 
	C937.670349,276.234131 944.685669,284.042236 951.498840,292.023224 
	C960.409973,302.461761 969.126404,313.066498 978.042725,323.500458 
	C986.773010,333.716766 995.696045,343.768219 1004.448486,353.965790 
	C1013.928284,365.010773 1023.279297,376.166321 1032.742676,387.225555 
	C1039.348999,394.945923 1046.098633,402.543701 1052.696777,410.270935 
	C1061.824951,420.961273 1070.825684,431.760406 1079.966797,442.439545 
	C1086.790527,450.411438 1093.812256,458.213776 1100.633545,466.187622 
	C1109.771484,476.869354 1118.808716,487.637360 1127.874268,498.380829 
	C1133.035400,504.497192 1138.416626,510.448669 1143.255737,516.811157 
	C1151.379517,527.492065 1152.017334,528.000000 1165.681396,528.000000 
	C1172.765381,528.000000 1179.849487,528.000000 1187.309814,528.000000 
	C1187.309814,423.557770 1187.309814,319.821045 1187.309814,215.685349 
	C1200.449341,215.685349 1213.192993,215.685349 1225.638184,215.685349 
	C1225.638184,204.207413 1225.638184,193.131714 1225.638184,182.364746 
	C1184.537476,182.364746 1143.798828,182.364746 1103.192017,182.364746 
	C1103.192017,193.684799 1103.192017,204.639511 1103.192017,215.991211 
	C1116.452637,215.991211 1129.529419,215.991211 1142.553101,215.991211 
	C1144.068237,229.391830 1142.988525,441.830261 1141.320190,451.090363 
	C1132.858643,441.171356 1124.529907,431.546631 1116.357056,421.791382 
	C1106.824097,410.412811 1097.447876,398.902985 1087.964966,387.482239 
	C1079.514893,377.305298 1071.011841,367.172119 1062.011719,356.518402 
M1634.000000,483.500000 
	C1634.000000,394.405731 1634.000000,305.311432 1634.000000,215.817459 
	C1647.314453,215.817459 1660.058228,215.817459 1672.704102,215.817459 
	C1672.704102,204.341095 1672.704102,193.267960 1672.704102,182.299591 
	C1631.669067,182.299591 1590.930786,182.299591 1550.303711,182.299591 
	C1550.303711,193.674850 1550.303711,204.748230 1550.303711,216.214966 
	C1563.680786,216.214966 1576.757690,216.214966 1589.290283,216.214966 
	C1589.290283,294.919464 1589.290283,373.222076 1589.290283,452.301361 
	C1581.852905,443.607239 1575.030640,435.776764 1568.369751,427.811401 
	C1558.847046,416.423767 1549.501465,404.888092 1539.968750,393.508911 
	C1532.192749,384.226501 1524.179810,375.142456 1516.405151,365.858887 
	C1506.874268,354.478302 1497.542725,342.930573 1488.010498,331.551147 
	C1480.234497,322.268585 1472.225342,313.181610 1464.436523,303.909668 
	C1454.567993,292.162018 1444.851685,280.286560 1435.003906,268.521454 
	C1429.228149,261.621307 1423.270264,254.873611 1417.489746,247.977402 
	C1407.527222,236.092041 1397.621094,224.159149 1387.726196,212.217331 
	C1381.694092,204.937576 1375.749268,197.585526 1369.723511,190.300491 
	C1365.431763,185.111969 1361.279175,181.400223 1353.139648,181.680695 
	C1327.836792,182.552643 1302.484863,182.000000 1277.151978,182.000000 
	C1275.539673,182.000000 1273.927246,182.000000 1272.239502,182.000000 
	C1272.239502,193.543579 1272.239502,204.615494 1272.239502,216.086227 
	C1284.882812,216.086227 1297.293213,216.086227 1309.753784,216.086227 
	C1309.753784,308.891327 1309.753784,401.295319 1309.753784,494.099915 
	C1296.769897,494.099915 1284.026245,494.099915 1271.254639,494.099915 
	C1271.254639,505.574799 1271.254639,516.646790 1271.254639,527.741760 
	C1313.247803,527.741760 1354.985840,527.741760 1396.737549,527.741760 
	C1396.737549,516.409302 1396.737549,505.337097 1396.737549,493.867767 
	C1382.403442,493.867767 1368.326904,493.867767 1354.289673,493.867767 
	C1352.199097,465.412231 1353.524292,250.092987 1355.787476,242.422485 
	C1357.103882,244.024872 1358.401611,245.686050 1359.783813,247.273575 
	C1366.675171,255.188309 1373.675537,263.009735 1380.474365,271.002808 
	C1391.059326,283.447144 1401.449219,296.057465 1412.044067,308.493347 
	C1419.064941,316.734192 1426.364380,324.737152 1433.422241,332.947083 
	C1442.910767,343.984558 1452.256592,355.144501 1461.720947,366.202972 
	C1468.328003,373.922882 1475.080933,381.518158 1481.678955,389.245728 
	C1490.806885,399.936401 1499.804565,410.738525 1508.945557,421.418030 
	C1515.769043,429.390198 1522.791260,437.192352 1529.617188,445.162506 
	C1538.869263,455.965363 1547.981201,466.888245 1557.224243,477.699036 
	C1564.043213,485.674744 1571.026733,493.509827 1577.842896,501.487854 
	C1584.737671,509.557922 1591.491455,517.748291 1598.380737,525.823059 
	C1599.174683,526.753479 1600.432739,527.885986 1601.490234,527.901001 
	C1612.253784,528.054016 1623.020264,527.994568 1634.000000,527.994568 
	C1634.000000,513.120911 1634.000000,498.810455 1634.000000,483.500000 
M576.397949,175.999786 
	C572.984619,176.340256 569.505493,176.368103 566.168396,177.070755 
	C539.908508,182.599915 515.510193,192.196915 493.795654,208.506592 
	C472.032379,224.852859 454.330078,244.548019 440.999237,268.202057 
	C428.342316,290.660278 421.923065,315.077759 420.169373,340.566498 
	C418.846802,359.789001 419.555939,379.169830 424.134216,397.991547 
	C432.760986,433.457001 450.462738,463.639709 477.656952,488.331238 
	C492.674896,501.967072 509.021851,513.165222 527.614441,521.310608 
	C544.946289,528.903809 563.103333,533.129944 581.768860,534.819885 
	C592.682800,535.808044 603.808350,535.648438 614.749512,534.822998 
	C626.368347,533.946472 638.049561,532.420471 649.410583,529.871948 
	C688.906128,521.012146 720.091187,498.663818 745.383362,467.901947 
	C760.862305,449.075500 771.348450,427.393402 777.724060,403.749054 
	C782.180176,387.223297 783.482605,370.310577 783.787231,353.383606 
	C783.962219,343.657104 782.124023,333.877747 780.975159,324.147797 
	C778.975769,307.215057 773.813721,291.156677 766.356873,275.917297 
	C755.359070,253.441360 740.255005,234.140991 721.310120,217.630722 
	C703.265625,201.905136 683.104431,190.281342 660.439819,182.836929 
	C639.442627,175.940186 617.833557,173.379318 595.829346,174.072006 
	C589.645996,174.266663 583.490112,175.331314 576.397949,175.999786 
M2212.000000,208.439484 
	C2212.000000,210.876923 2212.000000,213.314362 2212.000000,215.912033 
	C2220.170166,215.912033 2227.809326,215.912033 2235.959717,215.912033 
	C2197.808594,308.806854 2159.791260,401.375305 2121.668945,494.199646 
	C2110.726318,494.199646 2099.966064,494.199646 2089.291992,494.199646 
	C2089.291992,505.650391 2089.291992,516.723328 2089.291992,527.703674 
	C2128.323486,527.703674 2167.062500,527.703674 2205.699219,527.703674 
	C2205.699219,516.331726 2205.699219,505.258423 2205.699219,493.836456 
	C2191.997559,493.836456 2178.593262,493.836456 2164.771240,493.836456 
	C2175.201660,467.154510 2185.610107,440.983734 2195.540039,414.632599 
	C2197.009033,410.734436 2198.608398,409.913147 2202.371582,409.920197 
	C2262.871338,410.033173 2323.371094,410.000000 2383.871094,410.000000 
	C2385.848877,410.000000 2387.826660,410.000000 2389.475098,410.000000 
	C2400.404541,438.174133 2411.177979,465.945526 2422.143555,494.211975 
	C2408.103027,494.211975 2394.670654,494.211975 2381.278320,494.211975 
	C2381.278320,505.622681 2381.278320,516.695251 2381.278320,527.717285 
	C2420.296143,527.717285 2459.034912,527.717285 2497.712891,527.717285 
	C2497.712891,516.359436 2497.712891,505.286499 2497.712891,493.999969 
	C2487.782227,493.999969 2478.135010,494.107513 2468.495117,493.888794 
	C2466.978760,493.854401 2464.646240,492.699677 2464.123779,491.459412 
	C2454.111328,467.690155 2444.282471,443.843231 2434.479492,419.986237 
	C2424.736572,396.275879 2415.052979,372.540955 2405.364502,348.808258 
	C2398.886719,332.940674 2392.496338,317.037140 2385.973145,301.188263 
	C2378.715332,283.554626 2371.304443,265.984100 2364.051758,248.348419 
	C2359.666748,237.685471 2355.455811,226.950851 2350.990234,215.808167 
	C2359.210449,215.808167 2366.974121,215.808167 2374.735352,215.808167 
	C2374.735352,204.405121 2374.735352,193.332794 2374.735352,182.269028 
	C2320.398193,182.269028 2266.326416,182.269028 2212.000000,182.269028 
	C2212.000000,190.842377 2212.000000,199.149170 2212.000000,208.439484 
M317.599823,182.000000 
	C315.826111,182.000000 314.052368,182.000000 312.120300,182.000000 
	C312.120300,191.469528 312.120300,200.436249 312.120300,210.467407 
	C309.424500,208.327316 307.415619,206.574600 305.251831,205.040344 
	C290.871399,194.843674 275.367462,186.930038 258.367035,182.059891 
	C241.740051,177.296707 224.740097,174.382660 207.505890,174.208420 
	C196.438477,174.096558 185.186859,175.142731 174.315582,177.224655 
	C162.087540,179.566422 149.734512,182.532349 138.254303,187.227829 
	C116.501297,196.124954 97.929367,209.794128 82.469307,227.839645 
	C68.994118,243.568375 57.760860,260.470032 49.739025,279.593719 
	C42.178471,297.617676 37.386547,316.437805 36.289383,335.756836 
	C35.189274,355.127655 34.880917,374.697632 38.972275,393.961945 
	C41.914894,407.817383 45.747707,421.379913 51.719467,434.247284 
	C64.312416,461.381409 81.796562,484.657104 105.560158,503.153931 
	C129.987808,522.167603 157.898712,531.990601 188.338120,534.836487 
	C199.244446,535.856140 210.357941,535.519775 221.318619,534.849609 
	C231.676712,534.216248 242.086472,532.957886 252.248566,530.876343 
	C278.308502,525.538025 300.911896,513.140747 320.303436,495.084320 
	C334.473145,481.890228 345.845703,466.444183 353.931335,448.816437 
	C358.605255,438.626709 362.454285,428.058624 366.942780,417.000061 
	C352.312897,417.000061 339.156525,416.909637 326.005219,417.125702 
	C324.524261,417.150055 322.455139,418.566162 321.710144,419.916840 
	C317.992371,426.657227 314.942780,433.775818 311.074432,440.421631 
	C300.773041,458.119446 286.674530,471.990845 268.273956,481.235443 
	C252.451141,489.184937 235.375519,492.805878 217.936554,493.766998 
	C207.178589,494.359894 196.233856,493.182922 185.480148,491.901306 
	C162.007629,489.103882 142.212494,478.277771 125.564804,461.906158 
	C111.582687,448.155914 100.771782,432.004944 93.406158,413.777039 
	C85.929001,395.273132 82.005959,375.964386 82.049385,355.958893 
	C82.062225,350.041626 82.220444,344.058472 83.098412,338.223877 
	C84.633934,328.019348 85.946968,317.663818 88.826035,307.801483 
	C96.880753,280.209656 112.488144,257.372223 135.042648,239.552750 
	C151.914459,226.222961 171.533737,218.766006 192.792755,217.290848 
	C205.840729,216.385452 219.227875,217.350891 232.212128,219.218460 
	C254.286743,222.393524 273.690948,232.182983 289.886475,247.543701 
	C301.114716,258.193176 308.060974,271.714844 313.057098,286.276428 
	C313.539185,287.681427 314.933899,289.814331 315.945068,289.837189 
	C327.207214,290.092194 338.477295,289.998016 349.739838,289.998016 
	C349.739838,253.736557 349.739838,218.004242 349.739838,182.000000 
	C339.180206,182.000000 328.878510,182.000000 317.599823,182.000000 
M1886.500000,182.000000 
	C1832.075195,182.000000 1777.650391,182.000000 1723.284058,182.000000 
	C1723.284058,214.303406 1723.284058,246.039993 1723.284058,277.712952 
	C1737.308472,277.712952 1751.046997,277.712952 1765.179688,277.712952 
	C1765.179688,257.021606 1765.179688,236.614639 1765.179688,216.289734 
	C1803.315430,216.289734 1841.051636,216.289734 1878.715576,216.289734 
	C1878.715576,308.978516 1878.715576,401.377258 1878.715576,494.173340 
	C1848.361084,494.173340 1818.289062,494.173340 1788.288940,494.173340 
	C1788.288940,505.645996 1788.288940,516.718201 1788.288940,527.714661 
	C1864.644775,527.714661 1940.711426,527.714661 2016.711426,527.714661 
	C2016.711426,516.354736 2016.711426,505.282593 2016.711426,493.818420 
	C1986.019409,493.818420 1955.614136,493.818420 1925.284424,493.818420 
	C1925.284424,401.021362 1925.284424,308.622589 1925.284424,216.284943 
	C1963.305786,216.284943 2001.041992,216.284943 2039.175293,216.284943 
	C2039.175293,236.974121 2039.175293,257.381104 2039.175293,277.709778 
	C2053.314697,277.709778 2067.053467,277.709778 2080.708496,277.709778 
	C2080.708496,245.682159 2080.708496,213.945557 2080.708496,182.000000 
	C2016.111694,182.000000 1951.805786,182.000000 1886.500000,182.000000 
z"/>
<path fill="#000000" opacity="1.000000" stroke="none" 
	d="
M1062.271973,356.769043 
	C1071.011841,367.172119 1079.514893,377.305298 1087.964966,387.482239 
	C1097.447876,398.902985 1106.824097,410.412811 1116.357056,421.791382 
	C1124.529907,431.546631 1132.858643,441.171356 1141.320190,451.090363 
	C1142.988525,441.830261 1144.068237,229.391830 1142.553101,215.991211 
	C1129.529419,215.991211 1116.452637,215.991211 1103.192017,215.991211 
	C1103.192017,204.639511 1103.192017,193.684799 1103.192017,182.364746 
	C1143.798828,182.364746 1184.537476,182.364746 1225.638184,182.364746 
	C1225.638184,193.131714 1225.638184,204.207413 1225.638184,215.685349 
	C1213.192993,215.685349 1200.449341,215.685349 1187.309814,215.685349 
	C1187.309814,319.821045 1187.309814,423.557770 1187.309814,528.000000 
	C1179.849487,528.000000 1172.765381,528.000000 1165.681396,528.000000 
	C1152.017334,528.000000 1151.379517,527.492065 1143.255737,516.811157 
	C1138.416626,510.448669 1133.035400,504.497192 1127.874268,498.380829 
	C1118.808716,487.637360 1109.771484,476.869354 1100.633545,466.187622 
	C1093.812256,458.213776 1086.790527,450.411438 1079.966797,442.439545 
	C1070.825684,431.760406 1061.824951,420.961273 1052.696777,410.270935 
	C1046.098633,402.543701 1039.348999,394.945923 1032.742676,387.225555 
	C1023.279297,376.166321 1013.928284,365.010773 1004.448486,353.965790 
	C995.696045,343.768219 986.773010,333.716766 978.042725,323.500458 
	C969.126404,313.066498 960.409973,302.461761 951.498840,292.023224 
	C944.685669,284.042236 937.670349,276.234131 930.809265,268.293549 
	C923.370178,259.684143 916.005676,251.010300 907.724304,242.405655 
	C906.968262,326.067078 907.019043,409.696625 906.995422,493.727173 
	C921.183838,493.727173 935.260254,493.727173 949.667175,493.727173 
	C949.667175,505.191589 949.667175,516.265991 949.667175,527.671204 
	C908.128540,527.671204 866.390442,527.671204 824.325806,527.671204 
	C824.325806,516.793945 824.325806,505.719849 824.325806,494.242920 
	C836.880310,494.242920 849.623901,494.242920 862.682129,494.242920 
	C862.682129,401.440002 862.682129,309.036743 862.682129,216.232452 
	C850.442078,216.232452 838.031982,216.232452 825.312622,216.232452 
	C825.312622,204.766586 825.312622,193.693054 825.312622,182.228195 
	C826.582153,182.158081 828.013245,182.010803 829.444458,182.010086 
	C856.776917,181.996414 884.109436,182.039291 911.441589,181.948135 
	C914.699829,181.937271 916.459412,182.976913 918.536560,185.763275 
	C924.000793,193.093124 930.363342,199.747238 936.247314,206.771606 
	C945.992676,218.405716 955.602112,230.153671 965.347290,241.787888 
	C972.909424,250.815933 980.643250,259.700134 988.206665,268.727112 
	C997.953369,280.360016 1007.589600,292.085510 1017.305054,303.744720 
	C1024.313110,312.154694 1031.339966,320.549408 1038.418213,328.900208 
	C1046.247070,338.136444 1054.144287,347.314819 1062.271973,356.769043 
z"/>
<path fill="#000000" opacity="1.000000" stroke="none" 
	d="
M1634.000000,484.000000 
	C1634.000000,498.810455 1634.000000,513.120911 1634.000000,527.994568 
	C1623.020264,527.994568 1612.253784,528.054016 1601.490234,527.901001 
	C1600.432739,527.885986 1599.174683,526.753479 1598.380737,525.823059 
	C1591.491455,517.748291 1584.737671,509.557922 1577.842896,501.487854 
	C1571.026733,493.509827 1564.043213,485.674744 1557.224243,477.699036 
	C1547.981201,466.888245 1538.869263,455.965363 1529.617188,445.162506 
	C1522.791260,437.192352 1515.769043,429.390198 1508.945557,421.418030 
	C1499.804565,410.738525 1490.806885,399.936401 1481.678955,389.245728 
	C1475.080933,381.518158 1468.328003,373.922882 1461.720947,366.202972 
	C1452.256592,355.144501 1442.910767,343.984558 1433.422241,332.947083 
	C1426.364380,324.737152 1419.064941,316.734192 1412.044067,308.493347 
	C1401.449219,296.057465 1391.059326,283.447144 1380.474365,271.002808 
	C1373.675537,263.009735 1366.675171,255.188309 1359.783813,247.273575 
	C1358.401611,245.686050 1357.103882,244.024872 1355.787476,242.422485 
	C1353.524292,250.092987 1352.199097,465.412231 1354.289673,493.867767 
	C1368.326904,493.867767 1382.403442,493.867767 1396.737549,493.867767 
	C1396.737549,505.337097 1396.737549,516.409302 1396.737549,527.741760 
	C1354.985840,527.741760 1313.247803,527.741760 1271.254639,527.741760 
	C1271.254639,516.646790 1271.254639,505.574799 1271.254639,494.099915 
	C1284.026245,494.099915 1296.769897,494.099915 1309.753784,494.099915 
	C1309.753784,401.295319 1309.753784,308.891327 1309.753784,216.086227 
	C1297.293213,216.086227 1284.882812,216.086227 1272.239502,216.086227 
	C1272.239502,204.615494 1272.239502,193.543579 1272.239502,182.000000 
	C1273.927246,182.000000 1275.539673,182.000000 1277.151978,182.000000 
	C1302.484863,182.000000 1327.836792,182.552643 1353.139648,181.680695 
	C1361.279175,181.400223 1365.431763,185.111969 1369.723511,190.300491 
	C1375.749268,197.585526 1381.694092,204.937576 1387.726196,212.217331 
	C1397.621094,224.159149 1407.527222,236.092041 1417.489746,247.977402 
	C1423.270264,254.873611 1429.228149,261.621307 1435.003906,268.521454 
	C1444.851685,280.286560 1454.567993,292.162018 1464.436523,303.909668 
	C1472.225342,313.181610 1480.234497,322.268585 1488.010498,331.551147 
	C1497.542725,342.930573 1506.874268,354.478302 1516.405151,365.858887 
	C1524.179810,375.142456 1532.192749,384.226501 1539.968750,393.508911 
	C1549.501465,404.888092 1558.847046,416.423767 1568.369751,427.811401 
	C1575.030640,435.776764 1581.852905,443.607239 1589.290283,452.301361 
	C1589.290283,373.222076 1589.290283,294.919464 1589.290283,216.214966 
	C1576.757690,216.214966 1563.680786,216.214966 1550.303711,216.214966 
	C1550.303711,204.748230 1550.303711,193.674850 1550.303711,182.299591 
	C1590.930786,182.299591 1631.669067,182.299591 1672.704102,182.299591 
	C1672.704102,193.267960 1672.704102,204.341095 1672.704102,215.817459 
	C1660.058228,215.817459 1647.314453,215.817459 1634.000000,215.817459 
	C1634.000000,305.311432 1634.000000,394.405731 1634.000000,484.000000 
z"/>
<path fill="#000000" opacity="1.000000" stroke="none" 
	d="
M576.859741,175.998337 
	C583.490112,175.331314 589.645996,174.266663 595.829346,174.072006 
	C617.833557,173.379318 639.442627,175.940186 660.439819,182.836929 
	C683.104431,190.281342 703.265625,201.905136 721.310120,217.630722 
	C740.255005,234.140991 755.359070,253.441360 766.356873,275.917297 
	C773.813721,291.156677 778.975769,307.215057 780.975159,324.147797 
	C782.124023,333.877747 783.962219,343.657104 783.787231,353.383606 
	C783.482605,370.310577 782.180176,387.223297 777.724060,403.749054 
	C771.348450,427.393402 760.862305,449.075500 745.383362,467.901947 
	C720.091187,498.663818 688.906128,521.012146 649.410583,529.871948 
	C638.049561,532.420471 626.368347,533.946472 614.749512,534.822998 
	C603.808350,535.648438 592.682800,535.808044 581.768860,534.819885 
	C563.103333,533.129944 544.946289,528.903809 527.614441,521.310608 
	C509.021851,513.165222 492.674896,501.967072 477.656952,488.331238 
	C450.462738,463.639709 432.760986,433.457001 424.134216,397.991547 
	C419.555939,379.169830 418.846802,359.789001 420.169373,340.566498 
	C421.923065,315.077759 428.342316,290.660278 440.999237,268.202057 
	C454.330078,244.548019 472.032379,224.852859 493.795654,208.506592 
	C515.510193,192.196915 539.908508,182.599915 566.168396,177.070755 
	C569.505493,176.368103 572.984619,176.340256 576.859741,175.998337 
M466.480286,363.985718 
	C467.319397,371.268738 467.934967,378.585907 469.042389,385.827911 
	C471.656403,402.922577 477.990723,418.602264 487.505157,433.036957 
	C496.188812,446.211212 507.784668,456.403503 520.255859,465.810059 
	C542.051086,482.249481 566.399170,492.416321 593.671570,493.721222 
	C606.158020,494.318665 619.098022,493.311829 631.287720,490.591858 
	C656.340210,485.001801 677.780579,471.818512 696.723022,454.697357 
	C709.410950,443.229492 719.323242,429.757019 726.140503,413.858948 
	C732.747131,398.451813 735.843018,382.346100 736.842896,365.884247 
	C737.809082,349.976654 736.587097,334.146332 733.154785,318.403320 
	C728.755188,298.223450 720.168030,280.322876 706.436340,265.072479 
	C695.461731,252.884125 682.465088,243.091675 668.342102,234.620926 
	C648.439087,222.683304 627.002380,216.527390 603.942932,216.118958 
	C597.456482,216.004059 590.954163,217.450607 584.442200,217.967697 
	C568.905762,219.201385 554.458191,224.297791 541.056946,231.724426 
	C530.946777,237.327240 521.498169,244.279785 512.302856,251.344559 
	C493.931396,265.459412 480.898682,283.553101 473.677490,305.718719 
	C467.589722,324.405304 465.790527,343.633881 466.480286,363.985718 
z"/>
<path fill="#000000" opacity="1.000000" stroke="none" 
	d="
M2212.000000,207.947723 
	C2212.000000,199.149170 2212.000000,190.842377 2212.000000,182.269028 
	C2266.326416,182.269028 2320.398193,182.269028 2374.735352,182.269028 
	C2374.735352,193.332794 2374.735352,204.405121 2374.735352,215.808167 
	C2366.974121,215.808167 2359.210449,215.808167 2350.990234,215.808167 
	C2355.455811,226.950851 2359.666748,237.685471 2364.051758,248.348419 
	C2371.304443,265.984100 2378.715332,283.554626 2385.973145,301.188263 
	C2392.496338,317.037140 2398.886719,332.940674 2405.364502,348.808258 
	C2415.052979,372.540955 2424.736572,396.275879 2434.479492,419.986237 
	C2444.282471,443.843231 2454.111328,467.690155 2464.123779,491.459412 
	C2464.646240,492.699677 2466.978760,493.854401 2468.495117,493.888794 
	C2478.135010,494.107513 2487.782227,493.999969 2497.712891,493.999969 
	C2497.712891,505.286499 2497.712891,516.359436 2497.712891,527.717285 
	C2459.034912,527.717285 2420.296143,527.717285 2381.278320,527.717285 
	C2381.278320,516.695251 2381.278320,505.622681 2381.278320,494.211975 
	C2394.670654,494.211975 2408.103027,494.211975 2422.143555,494.211975 
	C2411.177979,465.945526 2400.404541,438.174133 2389.475098,410.000000 
	C2387.826660,410.000000 2385.848877,410.000000 2383.871094,410.000000 
	C2323.371094,410.000000 2262.871338,410.033173 2202.371582,409.920197 
	C2198.608398,409.913147 2197.009033,410.734436 2195.540039,414.632599 
	C2185.610107,440.983734 2175.201660,467.154510 2164.771240,493.836456 
	C2178.593262,493.836456 2191.997559,493.836456 2205.699219,493.836456 
	C2205.699219,505.258423 2205.699219,516.331726 2205.699219,527.703674 
	C2167.062500,527.703674 2128.323486,527.703674 2089.291992,527.703674 
	C2089.291992,516.723328 2089.291992,505.650391 2089.291992,494.199646 
	C2099.966064,494.199646 2110.726318,494.199646 2121.668945,494.199646 
	C2159.791260,401.375305 2197.808594,308.806854 2235.959717,215.912033 
	C2227.809326,215.912033 2220.170166,215.912033 2212.000000,215.912033 
	C2212.000000,213.314362 2212.000000,210.876923 2212.000000,207.947723 
M2244.034424,292.644836 
	C2232.694336,320.315765 2221.354492,347.986725 2209.936523,375.847839 
	C2265.706543,375.847839 2321.123291,375.847839 2377.041748,375.847839 
	C2354.866943,322.307587 2332.819824,269.075104 2310.837646,216.000046 
	C2299.847168,216.000046 2289.516846,215.933075 2279.189453,216.079346 
	C2277.799316,216.099030 2275.648926,216.828903 2275.169922,217.849396 
	C2272.244385,224.082291 2269.651611,230.474350 2267.036865,236.849869 
	C2259.501953,255.223953 2252.009277,273.615479 2244.034424,292.644836 
z"/>
<path fill="#000000" opacity="1.000000" stroke="none" 
	d="
M318.088318,182.000000 
	C328.878510,182.000000 339.180206,182.000000 349.739838,182.000000 
	C349.739838,218.004242 349.739838,253.736557 349.739838,289.998016 
	C338.477295,289.998016 327.207214,290.092194 315.945068,289.837189 
	C314.933899,289.814331 313.539185,287.681427 313.057098,286.276428 
	C308.060974,271.714844 301.114716,258.193176 289.886475,247.543701 
	C273.690948,232.182983 254.286743,222.393524 232.212128,219.218460 
	C219.227875,217.350891 205.840729,216.385452 192.792755,217.290848 
	C171.533737,218.766006 151.914459,226.222961 135.042648,239.552750 
	C112.488144,257.372223 96.880753,280.209656 88.826035,307.801483 
	C85.946968,317.663818 84.633934,328.019348 83.098412,338.223877 
	C82.220444,344.058472 82.062225,350.041626 82.049385,355.958893 
	C82.005959,375.964386 85.929001,395.273132 93.406158,413.777039 
	C100.771782,432.004944 111.582687,448.155914 125.564804,461.906158 
	C142.212494,478.277771 162.007629,489.103882 185.480148,491.901306 
	C196.233856,493.182922 207.178589,494.359894 217.936554,493.766998 
	C235.375519,492.805878 252.451141,489.184937 268.273956,481.235443 
	C286.674530,471.990845 300.773041,458.119446 311.074432,440.421631 
	C314.942780,433.775818 317.992371,426.657227 321.710144,419.916840 
	C322.455139,418.566162 324.524261,417.150055 326.005219,417.125702 
	C339.156525,416.909637 352.312897,417.000061 366.942780,417.000061 
	C362.454285,428.058624 358.605255,438.626709 353.931335,448.816437 
	C345.845703,466.444183 334.473145,481.890228 320.303436,495.084320 
	C300.911896,513.140747 278.308502,525.538025 252.248566,530.876343 
	C242.086472,532.957886 231.676712,534.216248 221.318619,534.849609 
	C210.357941,535.519775 199.244446,535.856140 188.338120,534.836487 
	C157.898712,531.990601 129.987808,522.167603 105.560158,503.153931 
	C81.796562,484.657104 64.312416,461.381409 51.719467,434.247284 
	C45.747707,421.379913 41.914894,407.817383 38.972275,393.961945 
	C34.880917,374.697632 35.189274,355.127655 36.289383,335.756836 
	C37.386547,316.437805 42.178471,297.617676 49.739025,279.593719 
	C57.760860,260.470032 68.994118,243.568375 82.469307,227.839645 
	C97.929367,209.794128 116.501297,196.124954 138.254303,187.227829 
	C149.734512,182.532349 162.087540,179.566422 174.315582,177.224655 
	C185.186859,175.142731 196.438477,174.096558 207.505890,174.208420 
	C224.740097,174.382660 241.740051,177.296707 258.367035,182.059891 
	C275.367462,186.930038 290.871399,194.843674 305.251831,205.040344 
	C307.415619,206.574600 309.424500,208.327316 312.120300,210.467407 
	C312.120300,200.436249 312.120300,191.469528 312.120300,182.000000 
	C314.052368,182.000000 315.826111,182.000000 318.088318,182.000000 
z"/>
<path fill="#000000" opacity="1.000000" stroke="none" 
	d="
M1887.000000,182.000000 
	C1951.805786,182.000000 2016.111694,182.000000 2080.708496,182.000000 
	C2080.708496,213.945557 2080.708496,245.682159 2080.708496,277.709778 
	C2067.053467,277.709778 2053.314697,277.709778 2039.175293,277.709778 
	C2039.175293,257.381104 2039.175293,236.974121 2039.175293,216.284943 
	C2001.041992,216.284943 1963.305786,216.284943 1925.284424,216.284943 
	C1925.284424,308.622589 1925.284424,401.021362 1925.284424,493.818420 
	C1955.614136,493.818420 1986.019409,493.818420 2016.711426,493.818420 
	C2016.711426,505.282593 2016.711426,516.354736 2016.711426,527.714661 
	C1940.711426,527.714661 1864.644775,527.714661 1788.288940,527.714661 
	C1788.288940,516.718201 1788.288940,505.645996 1788.288940,494.173340 
	C1818.289062,494.173340 1848.361084,494.173340 1878.715576,494.173340 
	C1878.715576,401.377258 1878.715576,308.978516 1878.715576,216.289734 
	C1841.051636,216.289734 1803.315430,216.289734 1765.179688,216.289734 
	C1765.179688,236.614639 1765.179688,257.021606 1765.179688,277.712952 
	C1751.046997,277.712952 1737.308472,277.712952 1723.284058,277.712952 
	C1723.284058,246.039993 1723.284058,214.303406 1723.284058,182.000000 
	C1777.650391,182.000000 1832.075195,182.000000 1887.000000,182.000000 
z"/>
<path fill="#FFFFFF" opacity="1.000000" stroke="none" 
	d="
M466.257446,363.567047 
	C465.790527,343.633881 467.589722,324.405304 473.677490,305.718719 
	C480.898682,283.553101 493.931396,265.459412 512.302856,251.344559 
	C521.498169,244.279785 530.946777,237.327240 541.056946,231.724426 
	C554.458191,224.297791 568.905762,219.201385 584.442200,217.967697 
	C590.954163,217.450607 597.456482,216.004059 603.942932,216.118958 
	C627.002380,216.527390 648.439087,222.683304 668.342102,234.620926 
	C682.465088,243.091675 695.461731,252.884125 706.436340,265.072479 
	C720.168030,280.322876 728.755188,298.223450 733.154785,318.403320 
	C736.587097,334.146332 737.809082,349.976654 736.842896,365.884247 
	C735.843018,382.346100 732.747131,398.451813 726.140503,413.858948 
	C719.323242,429.757019 709.410950,443.229492 696.723022,454.697357 
	C677.780579,471.818512 656.340210,485.001801 631.287720,490.591858 
	C619.098022,493.311829 606.158020,494.318665 593.671570,493.721222 
	C566.399170,492.416321 542.051086,482.249481 520.255859,465.810059 
	C507.784668,456.403503 496.188812,446.211212 487.505157,433.036957 
	C477.990723,418.602264 471.656403,402.922577 469.042389,385.827911 
	C467.934967,378.585907 467.319397,371.268738 466.257446,363.567047 
z"/>
<path fill="#FFFFFF" opacity="1.000000" stroke="none" 
	d="
M2244.267090,292.322479 
	C2252.009277,273.615479 2259.501953,255.223953 2267.036865,236.849869 
	C2269.651611,230.474350 2272.244385,224.082291 2275.169922,217.849396 
	C2275.648926,216.828903 2277.799316,216.099030 2279.189453,216.079346 
	C2289.516846,215.933075 2299.847168,216.000046 2310.837646,216.000046 
	C2332.819824,269.075104 2354.866943,322.307587 2377.041748,375.847839 
	C2321.123291,375.847839 2265.706543,375.847839 2209.936523,375.847839 
	C2221.354492,347.986725 2232.694336,320.315765 2244.267090,292.322479 
z"/>
</svg>